<svg id="visual" viewBox="0 0 900 600" width="900" height="600" xmlns="http://www.w3.org/2000/svg" xmlns:xlink="http://www.w3.org/1999/xlink" version="1.1"><rect x="0" y="0" width="900" height="600" fill="#001220"></rect><path d="M0 446L21.5 441.8C43 437.7 86 429.3 128.8 424.2C171.7 419 214.3 417 257.2 414.7C300 412.3 343 409.7 385.8 407C428.7 404.3 471.3 401.7 514.2 393.5C557 385.3 600 371.7 642.8 365.2C685.7 358.7 728.3 359.3 771.2 368.2C814 377 857 394 878.5 402.5L900 411L900 601L878.5 601C857 601 814 601 771.2 601C728.3 601 685.7 601 642.8 601C600 601 557 601 514.2 601C471.3 601 428.7 601 385.8 601C343 601 300 601 257.2 601C214.3 601 171.7 601 128.8 601C86 601 43 601 21.5 601L0 601Z" fill="#fa7268"></path><path d="M0 476L21.5 466.5C43 457 86 438 128.8 427C171.7 416 214.3 413 257.2 414.5C300 416 343 422 385.8 433.3C428.7 444.7 471.3 461.3 514.2 462.5C557 463.7 600 449.3 642.8 442.5C685.7 435.7 728.3 436.3 771.2 436.7C814 437 857 437 878.5 437L900 437L900 601L878.5 601C857 601 814 601 771.2 601C728.3 601 685.7 601 642.8 601C600 601 557 601 514.2 601C471.3 601 428.7 601 385.8 601C343 601 300 601 257.2 601C214.3 601 171.7 601 128.8 601C86 601 43 601 21.5 601L0 601Z" fill="#ef5f67"></path><path d="M0 446L21.5 447.8C43 449.7 86 453.3 128.8 452.2C171.7 451 214.3 445 257.2 445.7C300 446.3 343 453.7 385.8 453.3C428.7 453 471.3 445 514.2 445.3C557 445.7 600 454.3 642.8 460C685.7 465.7 728.3 468.3 771.2 470.2C814 472 857 473 878.5 473.5L900 474L900 601L878.5 601C857 601 814 601 771.2 601C728.3 601 685.7 601 642.8 601C600 601 557 601 514.2 601C471.3 601 428.7 601 385.8 601C343 601 300 601 257.2 601C214.3 601 171.7 601 128.8 601C86 601 43 601 21.5 601L0 601Z" fill="#e34c67"></path><path d="M0 486L21.5 493.2C43 500.3 86 514.7 128.8 522.5C171.7 530.3 214.3 531.7 257.2 528.5C300 525.3 343 517.7 385.8 514.2C428.7 510.7 471.3 511.3 514.2 510.5C557 509.7 600 507.3 642.8 505.7C685.7 504 728.3 503 771.2 503C814 503 857 504 878.5 504.5L900 505L900 601L878.5 601C857 601 814 601 771.2 601C728.3 601 685.7 601 642.8 601C600 601 557 601 514.2 601C471.3 601 428.7 601 385.8 601C343 601 300 601 257.2 601C214.3 601 171.7 601 128.8 601C86 601 43 601 21.5 601L0 601Z" fill="#d53867"></path><path d="M0 543L21.5 546.8C43 550.7 86 558.3 128.8 562.2C171.7 566 214.3 566 257.2 566.5C300 567 343 568 385.8 561.2C428.7 554.3 471.3 539.7 514.2 540C557 540.3 600 555.7 642.8 556.3C685.7 557 728.3 543 771.2 538C814 533 857 537 878.5 539L900 541L900 601L878.5 601C857 601 814 601 771.2 601C728.3 601 685.7 601 642.8 601C600 601 557 601 514.2 601C471.3 601 428.7 601 385.8 601C343 601 300 601 257.2 601C214.3 601 171.7 601 128.8 601C86 601 43 601 21.5 601L0 601Z" fill="#c62368"></path></svg>